<svg width="180" height="52" viewBox="0 0 180 52" fill="none" xmlns="http://www.w3.org/2000/svg">
<g clip-path="url(#clip0_320_3583)">
<path d="M180 46.7875C180 49.6674 177.683 52 174.817 52H5.18999C2.32522 52 0 49.6674 0 46.7875V5.21933C0 2.34087 2.32534 0 5.18999 0H174.815C177.683 0 179.999 2.34087 179.999 5.21933L180 46.7875Z" fill="white"/>
<path d="M40.1923 25.7263C40.1536 21.5356 43.7129 19.4968 43.8756 19.4019C41.8599 16.5375 38.7356 16.1461 37.6377 16.1149C35.0136 15.8458 32.4682 17.6453 31.1315 17.6453C29.7681 17.6453 27.7097 16.1409 25.4911 16.1851C22.6363 16.228 19.9656 17.839 18.5007 20.3407C15.4778 25.4416 17.7323 32.9375 20.6286 37.0606C22.0773 39.0812 23.7703 41.3345 25.9861 41.2552C28.1539 41.1694 28.9637 39.9094 31.5798 39.9094C34.1717 39.9094 34.9322 41.2552 37.192 41.2045C39.5187 41.1694 40.9834 39.1761 42.3816 37.1386C44.0558 34.8255 44.7281 32.5448 44.7549 32.4278C44.7014 32.4096 40.2377 30.7479 40.1923 25.7263ZM35.9233 13.4026C37.0892 11.9814 37.8871 10.048 37.6656 8.08588C35.9779 8.15869 33.8676 9.22359 32.6521 10.6136C31.5769 11.8384 30.6164 13.846 30.8645 15.7339C32.7603 15.8718 34.7067 14.8017 35.9233 13.4026Z" fill="black"/>
<path d="M71.5919 40.9652H68.5622L66.9027 35.8825H61.1341L59.5532 40.9652H56.6038L62.3202 23.6615H65.8501L71.5919 40.9652ZM66.4025 33.7501L64.9017 29.2318C64.7429 28.7702 64.4441 27.6832 64.0064 25.972H63.9532C63.7771 26.708 63.4956 27.795 63.1101 29.2318L61.6346 33.7501H66.4025ZM86.2639 34.5732C86.2639 36.6952 85.6729 38.3725 84.4895 39.6039C83.4304 40.6999 82.1136 41.2475 80.5434 41.2475C78.8478 41.2475 77.6284 40.6583 76.888 39.4778V46.0246H74.0438V32.589C74.0438 31.2561 74.0079 29.8897 73.9386 28.488H76.4399L76.5987 30.4657H76.6519C77.6004 28.9756 79.0399 28.2305 80.9716 28.2305C82.4817 28.2305 83.7424 28.8117 84.751 29.9754C85.7582 31.1418 86.2639 32.6735 86.2639 34.5732ZM83.3662 34.6746C83.3662 33.4602 83.0861 32.459 82.5231 31.6697C81.9081 30.8493 81.0823 30.4385 80.0471 30.4385C79.3454 30.4385 78.7077 30.6672 78.1381 31.1184C77.5671 31.5735 77.1935 32.1677 77.0189 32.9037C76.9308 33.2469 76.8868 33.5265 76.8868 33.7476V35.8292C76.8868 36.7355 77.1723 37.5014 77.7433 38.1282C78.3143 38.7523 79.056 39.0655 79.9685 39.0655C81.0398 39.0655 81.8736 38.6613 82.4698 37.8589C83.0674 37.0541 83.3662 35.993 83.3662 34.6746ZM100.988 34.5732C100.988 36.6952 100.397 38.3725 99.2134 39.6039C98.1529 40.6999 96.8375 41.2475 95.266 41.2475C93.5704 41.2475 92.3511 40.6583 91.6107 39.4778V46.0246H88.7665V32.589C88.7665 31.2561 88.7304 29.8897 88.6611 28.488H91.1624L91.3212 30.4657H91.3745C92.3217 28.9756 93.7612 28.2305 95.6941 28.2305C97.2029 28.2305 98.4636 28.8117 99.4749 29.9754C100.481 31.1418 100.988 32.6735 100.988 34.5732ZM98.0888 34.6746C98.0888 33.4602 97.8075 32.459 97.2444 31.6697C96.6294 30.8493 95.8063 30.4385 94.771 30.4385C94.0693 30.4385 93.4316 30.6672 92.8593 31.1184C92.2884 31.5735 91.9163 32.1677 91.7414 32.9037C91.6547 33.2469 91.608 33.5265 91.608 33.7476V35.8292C91.608 36.7355 91.8948 37.5014 92.4631 38.1282C93.0341 38.751 93.7758 39.0655 94.691 39.0655C95.7635 39.0655 96.5972 38.6613 97.1923 37.8589C97.79 37.0541 98.0888 35.993 98.0888 34.6746ZM117.45 36.1114C117.45 37.5846 116.922 38.7821 115.872 39.7066C114.716 40.7155 113.104 41.2213 111.036 41.2213C109.125 41.2213 107.594 40.8625 106.439 40.1434L107.096 37.8329C108.344 38.5532 109.714 38.9121 111.205 38.9121C112.278 38.9121 113.112 38.6755 113.707 38.2061C114.303 37.7354 114.604 37.1061 114.604 36.3207C114.604 35.6174 114.355 35.0283 113.865 34.5486C113.373 34.0701 112.559 33.6241 111.416 33.2145C108.308 32.0846 106.752 30.432 106.752 28.258C106.752 26.8381 107.302 25.6757 108.399 24.7668C109.495 23.8593 110.949 23.4056 112.758 23.4056C114.374 23.4056 115.72 23.6799 116.788 24.2273L116.075 26.4871C115.069 25.9566 113.933 25.6913 112.663 25.6913C111.66 25.6913 110.873 25.9318 110.31 26.4103C109.837 26.8381 109.596 27.3596 109.596 27.9784C109.596 28.6612 109.87 29.2281 110.414 29.6728C110.886 30.0822 111.748 30.5283 112.994 31.0068C114.523 31.6075 115.646 32.3071 116.365 33.1106C117.09 33.914 117.45 34.9164 117.45 36.1114ZM126.878 30.5684H123.743V36.6263C123.743 38.1671 124.295 38.9355 125.402 38.9355C125.911 38.9355 126.332 38.8938 126.666 38.8068L126.744 40.9119C126.184 41.1161 125.446 41.2187 124.532 41.2187C123.409 41.2187 122.531 40.8846 121.898 40.2162C121.267 39.5479 120.949 38.4284 120.949 36.8525V30.5632H119.081V28.4828H120.949V26.1983L123.743 25.3765V28.4828H126.878V30.5684ZM140.995 34.6239C140.995 36.5416 140.432 38.1162 139.308 39.3477C138.133 40.6154 136.57 41.2473 134.621 41.2473C132.74 41.2473 131.244 40.6401 130.129 39.427C129.014 38.2112 128.456 36.6796 128.456 34.8319C128.456 32.8984 129.032 31.3148 130.181 30.0834C131.332 28.8508 132.882 28.2346 134.831 28.2346C136.71 28.2346 138.219 28.843 139.36 30.0574C140.452 31.2354 140.995 32.7567 140.995 34.6239ZM138.046 34.6876C138.046 33.5446 137.793 32.5642 137.285 31.7437C136.688 30.7529 135.835 30.2577 134.729 30.2577C133.589 30.2577 132.716 30.7529 132.121 31.7437C131.611 32.5642 131.357 33.5615 131.357 34.7395C131.357 35.8838 131.611 36.8667 132.121 37.6847C132.736 38.6755 133.593 39.1709 134.705 39.1709C135.792 39.1709 136.644 38.6651 137.261 37.66C137.784 36.82 138.046 35.8331 138.046 34.6876ZM150.244 30.926C149.962 30.8752 149.661 30.8492 149.347 30.8492C148.347 30.8492 147.573 31.2159 147.029 31.9544C146.557 32.6045 146.319 33.4263 146.319 34.4183V40.9651H143.475V32.4174C143.475 30.9806 143.447 29.6699 143.392 28.4893H145.87L145.974 30.8765H146.052C146.354 30.0561 146.826 29.3942 147.474 28.8988C148.108 28.4529 148.792 28.2305 149.53 28.2305C149.793 28.2305 150.03 28.2487 150.241 28.2813L150.244 30.926ZM162.964 34.1363C162.964 34.633 162.931 35.0516 162.86 35.3936H154.327C154.359 36.6263 154.773 37.5702 155.565 38.2204C156.284 38.8004 157.214 39.0915 158.356 39.0915C159.619 39.0915 160.772 38.8965 161.809 38.5025L162.254 40.4256C161.043 40.9405 159.613 41.1966 157.962 41.1966C155.978 41.1966 154.419 40.627 153.285 39.4907C152.154 38.353 151.587 36.8239 151.587 34.9086C151.587 33.0284 152.114 31.4617 153.169 30.2122C154.274 28.8781 155.767 28.211 157.645 28.211C159.49 28.211 160.887 28.878 161.835 30.2122C162.586 31.2693 162.964 32.5799 162.964 34.1363ZM160.252 33.4173C160.272 32.5942 160.085 31.8856 159.699 31.2862C159.207 30.5138 158.449 30.1289 157.434 30.1289C156.504 30.1289 155.747 30.5047 155.17 31.2589C154.697 31.8583 154.415 32.5786 154.329 33.4147L160.252 33.4173Z" fill="black"/>
<path d="M65.0312 17.4684H63.5409L62.7258 14.9706H59.891L59.1132 17.4684H57.6631L60.4726 8.96349H62.2069L65.0312 17.4684ZM62.4804 13.9226L61.7426 11.7018C61.6652 11.4743 61.5225 10.9451 61.3024 10.0999H61.2757C61.185 10.4653 61.0556 10.9958 60.8608 11.7018L60.1364 13.9226H62.4804ZM72.0562 11.3364L69.6736 17.4684H68.3141L66.0089 11.3364H67.5111L68.5863 14.5793C68.7677 15.1215 68.9225 15.639 69.0386 16.1305H69.0772C69.1814 15.6897 69.3361 15.1722 69.5295 14.5793L70.5914 11.3364H72.0562ZM77.1283 17.4684L77.0242 16.7623H76.9854C76.5585 17.3305 75.9368 17.6074 75.1472 17.6074C74.0211 17.6074 73.218 16.8377 73.218 15.8027C73.218 14.2892 74.5641 13.5064 76.8947 13.5064V13.3933C76.8947 12.5859 76.4545 12.1815 75.5873 12.1815C74.9655 12.1815 74.4214 12.3336 73.9438 12.6366L73.6595 11.7407C74.2425 11.387 74.967 11.2102 75.822 11.2102C77.4656 11.2102 78.2953 12.0554 78.2953 13.747V16.0055C78.2953 16.6244 78.322 17.1042 78.386 17.4696L77.1283 17.4684ZM76.9335 14.4141C75.3794 14.4141 74.6029 14.7808 74.6029 15.6507C74.6029 16.2943 75.0044 16.6089 75.5607 16.6089C76.273 16.6089 76.9335 16.0797 76.9335 15.3607V14.4141ZM81.4092 10.3261C80.9437 10.3261 80.5808 9.97248 80.5808 9.50569C80.5808 9.0389 80.9558 8.69824 81.4359 8.69824C81.9148 8.69824 82.3031 9.0389 82.2898 9.50569C82.2898 9.99849 81.9283 10.3261 81.4092 10.3261ZM82.135 17.4684H80.7369V11.3364H82.135V17.4684ZM86.0171 17.4684H84.619V8.52271H86.0171V17.4684ZM91.9589 17.4684L91.8548 16.7623H91.8162C91.3893 17.3305 90.7676 17.6074 89.9779 17.6074C88.8519 17.6074 88.0488 16.8377 88.0488 15.8027C88.0488 14.2892 89.3948 13.5064 91.7254 13.5064V13.3933C91.7254 12.5859 91.2851 12.1815 90.418 12.1815C89.7963 12.1815 89.252 12.3336 88.7744 12.6366L88.4891 11.7394C89.072 11.3857 89.7964 11.2089 90.6516 11.2089C92.2951 11.2089 93.1248 12.0541 93.1248 13.7457V16.0042C93.1248 16.6231 93.1529 17.1029 93.2143 17.4683H91.9589V17.4684ZM91.7642 14.4141C90.21 14.4141 89.4336 14.7808 89.4336 15.6507C89.4336 16.2943 89.835 16.6089 90.3913 16.6089C91.1037 16.6089 91.7642 16.0797 91.7642 15.3607V14.4141ZM98.7894 17.6075C97.8969 17.6075 97.2378 17.2409 96.8109 16.5218H96.7829L96.7028 17.4684H95.5115C95.5502 16.9769 95.5635 16.4204 95.5635 15.8158V8.52271H96.963V12.2336H96.9896C97.4044 11.5523 98.0757 11.2116 98.9961 11.2116C100.512 11.2116 101.573 12.4742 101.573 14.3153C101.573 16.2189 100.394 17.6075 98.7894 17.6075ZM98.5051 12.2817C97.7007 12.2817 96.9644 12.9631 96.9644 13.9096V14.9823C96.9644 15.8275 97.626 16.5218 98.4812 16.5218C99.5285 16.5218 100.151 15.6897 100.151 14.3647C100.15 13.1282 99.5017 12.2817 98.5051 12.2817ZM105.038 17.4684H103.641V8.52271H105.038V17.4684ZM112.649 14.7301H108.452C108.48 15.8912 109.267 16.5465 110.433 16.5465C111.055 16.5465 111.624 16.4451 112.128 16.2566L112.346 17.2032C111.751 17.4554 111.052 17.5815 110.237 17.5815C108.268 17.5815 107.103 16.3697 107.103 14.4908C107.103 12.6107 108.296 11.1973 110.079 11.1973C111.684 11.1973 112.695 12.3584 112.695 14.1125C112.701 14.3517 112.689 14.5663 112.649 14.7301ZM111.367 13.7588C111.367 12.8122 110.874 12.1439 109.981 12.1439C109.177 12.1439 108.545 12.8252 108.452 13.7588H111.367ZM121.123 17.6075C119.284 17.6075 118.093 16.2696 118.093 14.4531C118.093 12.56 119.31 11.2103 121.228 11.2103C123.038 11.2103 124.258 12.4846 124.258 14.353C124.258 16.2696 123.001 17.6075 121.123 17.6075ZM121.176 12.2063C120.166 12.2063 119.519 13.1269 119.519 14.4141C119.519 15.6767 120.18 16.5972 121.163 16.5972C122.146 16.5972 122.805 15.613 122.805 14.3881C122.806 13.1399 122.159 12.2063 121.176 12.2063ZM131.774 17.4684H130.377V13.9473C130.377 12.8629 129.95 12.3194 129.108 12.3194C128.28 12.3194 127.709 13.0138 127.709 13.8212V17.4684H126.312V13.0892C126.312 12.547 126.298 11.9658 126.26 11.3351H127.49L127.556 12.2817H127.594C127.968 11.6264 128.734 11.209 129.587 11.209C130.907 11.209 131.774 12.1933 131.774 13.7952V17.4684H131.774ZM140.921 12.3584H139.383V15.336C139.383 16.094 139.654 16.4724 140.197 16.4724C140.444 16.4724 140.652 16.4464 140.819 16.4087L140.857 17.4437C140.585 17.5452 140.221 17.5958 139.771 17.5958C138.669 17.5958 138.012 17.0029 138.012 15.4504V12.3584H137.094V11.3364H138.012V10.213L139.383 9.80865V11.3351H140.921V12.3584ZM148.325 17.4684H146.926V13.9733C146.926 12.8759 146.499 12.3207 145.657 12.3207C144.933 12.3207 144.261 12.8005 144.261 13.7718V17.4684H142.861V8.52271H144.261V12.2063H144.287C144.728 11.538 145.363 11.209 146.178 11.209C147.51 11.209 148.325 12.218 148.325 13.8212V17.4684ZM155.469 14.7301H151.274C151.3 15.8912 152.087 16.5465 153.254 16.5465C153.877 16.5465 154.445 16.4451 154.949 16.2566L155.168 17.2032C154.573 17.4554 153.873 17.5815 153.057 17.5815C151.088 17.5815 149.924 16.3697 149.924 14.4908C149.924 12.6107 151.117 11.1973 152.9 11.1973C154.505 11.1973 155.516 12.3584 155.516 14.1125C155.521 14.3517 155.508 14.5663 155.469 14.7301ZM154.187 13.7588C154.187 12.8122 153.696 12.1439 152.802 12.1439C151.998 12.1439 151.366 12.8252 151.274 13.7588H154.187Z" fill="black"/>
</g>
<defs>
<clipPath id="clip0_320_3583">
<rect width="180" height="52" fill="white"/>
</clipPath>
</defs>
</svg>
